# xmcd CD database file
#
# Track frame offsets:
#	150
#	25464
#	66914
#	94348
#	118391
#	157816
#	183289
#	206607
#	228119
#	269543
#
# Disc length: 3894 seconds
#
# Revision: 0
# Processed by: cddbd v1.5.2PL0 Copyright (c) Steve Scherf et al.
# Submitted via: CDex 1.70beta2
#
DISCID=8a0f340a
DTITLE=The Bad Plus - Prog
DYEAR=1900
DGENRE=Jazz
TTITLE0=Everybody Wants To Rule the World
TTITLE1=Physical Cities
TTITLE2=Life On Mars
TTITLE3=Mint
TTITLE4=Giant
TTITLE5=Thriftstore Jewelry
TTITLE6=Tom Sawyer
TTITLE7=This Guy's In Love With You
TTITLE8=The World Is the Same
TTITLE9=1980 World Champion
EXTD=
EXTT0=
EXTT1=
EXTT2=
EXTT3=
EXTT4=
EXTT5=
EXTT6=
EXTT7=
EXTT8=
EXTT9=
PLAYORDER=
